<svg version="1.1" xmlns="http://www.w3.org/2000/svg" xmlns:xlink="http://www.w3.org/1999/xlink" width="2072.22668" height="152.92809" viewBox="0,0,2072.22668,152.92809"><g transform="translate(-162.82327,-103.53596)"><g data-paper-data="{&quot;isPaintingLayer&quot;:true}" fill-rule="nonzero" stroke-width="2.5" stroke-linecap="butt" stroke-linejoin="miter" stroke-miterlimit="10" stroke-dasharray="" stroke-dashoffset="0" style="mix-blend-mode: normal"><path d="M359.06665,206.3v-1.66667h1874.73331v1.66667z" fill="none" stroke="#ff0000"/><path d="M169.50209,223.73185v-88.56899h44.65663v88.56899z" fill="#6c6c6c" stroke="#000000"/><path d="M211.67117,155.94021l158.57371,0.89909l-0.29006,12.25558l-130.21669,0.07883l-0.01659,21.43818l129.63386,1.57833l-0.25133,12.85432l-158.57371,-0.8991z" data-paper-data="{&quot;index&quot;:null}" fill="#757575" stroke="#000000"/><path d="M252.19992,136.53526l-57.97264,28.35725l-28.93596,-59.15576z" data-paper-data="{&quot;index&quot;:null}" fill="#8e8080" stroke="#000000"/><path d="M166.09309,254.26326l28.93596,-59.15576l57.97264,28.35724z" fill="#8e8080" stroke="#000000"/><path d="M239.87382,134.62671c21.42428,0.24818 39.20144,15.33331 43.67736,35.37496c0.74931,3.35516 -26.71691,1.62148 -26.71691,1.62148l-0.07851,17.07792c0,0 27.23017,-0.70093 26.66404,1.68998c-4.00681,16.92196 -17.49341,30.13282 -34.48575,33.79542c-3.25515,0.70163 -17.92469,0.31381 -20.25727,-0.24946c-20.06487,-4.84519 -34.86296,-23.03133 -34.61372,-44.54866c0.28971,-25.01087 20.79989,-45.05134 45.81077,-44.76163z" data-paper-data="{&quot;index&quot;:null}" fill="#888888" stroke="#000000"/><path d="M239.89437,156.86045c10.90731,0.12636 19.95786,7.80633 22.2366,18.00976c0.38149,1.70815 -13.60184,0.82551 -13.60184,0.82551l-0.03996,8.69452c0,0 13.86316,-0.35687 13.57493,0.86039c-2.43067,10.26549 -11.71381,17.84846 -22.70384,17.72115c-12.73331,-0.14749 -22.9361,-10.58943 -22.78861,-23.32274c0.14749,-12.73331 10.58944,-22.9361 23.32275,-22.78861z" data-paper-data="{&quot;index&quot;:null}" fill="#9c9c9c" stroke="#000000"/><path d="M239.47571,168.99569c6.0294,0.06985 10.86059,5.01427 10.79076,11.04367c-0.06985,6.0294 -5.01427,10.86059 -11.04367,10.79076c-6.0294,-0.06985 -10.86059,-5.01427 -10.79076,-11.04367c0.06985,-6.0294 5.01427,-10.86059 11.04367,-10.79076z" data-paper-data="{&quot;index&quot;:null}" fill="#ffffff" stroke="#000000"/><path d="M294.83731,208.33608v-6.94203h74.46898v6.94203z" fill="#9c9c9c" stroke="#000000"/></g></g></svg>