<svg version="1.1" xmlns="http://www.w3.org/2000/svg" xmlns:xlink="http://www.w3.org/1999/xlink" width="236.10001" height="119" viewBox="0,0,236.10001,119"><defs><radialGradient cx="240" cy="180" r="59.5" gradientUnits="userSpaceOnUse" id="color-1"><stop offset="0" stop-color="#ffffff"/><stop offset="1" stop-color="#ffffff" stop-opacity="0"/></radialGradient><radialGradient cx="416.60001" cy="218.39999" r="0.0025" gradientUnits="userSpaceOnUse" id="color-2"><stop offset="0" stop-color="#ffffff"/><stop offset="1" stop-color="#ffffff" stop-opacity="0"/></radialGradient></defs><g transform="translate(-180.5,-120.5)"><g data-paper-data="{&quot;isPaintingLayer&quot;:true}" fill-rule="nonzero" stroke="none" stroke-width="0" stroke-linecap="butt" stroke-linejoin="miter" stroke-miterlimit="10" stroke-dasharray="" stroke-dashoffset="0" style="mix-blend-mode: normal"><path d="M218.5,180c0,-11.87412 9.62588,-21.5 21.5,-21.5c11.87412,0 21.5,9.62588 21.5,21.5c0,11.87412 -9.62588,21.5 -21.5,21.5c-11.87412,0 -21.5,-9.62588 -21.5,-21.5z" fill="#ffffff"/><path d="M180.5,180c0,-32.86094 26.63906,-59.5 59.5,-59.5c32.86094,0 59.5,26.63906 59.5,59.5c0,32.86094 -26.63906,59.5 -59.5,59.5c-32.86094,0 -59.5,-26.63906 -59.5,-59.5z" fill="url(#color-1)"/><ellipse cx="833.20001" cy="436.79999" transform="scale(0.5,0.5)" rx="0" ry="0" fill="url(#color-2)"/></g></g></svg>